<svg width="178" height="69" viewBox="0 0 178 69" fill="none" xmlns="http://www.w3.org/2000/svg">
<path d="M17.595 14.19C23.805 15 27.585 18.195 27.585 23.415C27.54 29.94 22.41 33 14.4 33H2.34V32.73C3.465 32.28 4.14 30.975 4.14 29.13V4.11C4.14 2.265 3.465 0.959999 2.34 0.509997V0.239998H15.795C22.455 0.239998 26.055 2.67 26.055 7.35C26.055 10.95 23.265 13.515 17.595 14.19ZM13.32 0.824998H9.72V13.875H14.49C18.045 13.875 20.16 11.805 20.16 7.395C20.16 1.995 17.145 0.824998 13.32 0.824998ZM9.72 14.46V32.415H13.77C17.955 32.415 21.645 30.39 21.69 23.01C21.69 17.295 18.405 14.46 14.49 14.46H9.72ZM54.7323 26.61H54.9123L53.8323 33H31.8273V32.73C32.9523 32.28 33.6273 30.795 33.6273 29.355V3.885C33.6273 2.445 32.9523 0.959999 31.8273 0.509997V0.239998H52.2123L53.3373 6.63H53.1123C51.9423 3.75 49.4223 0.824998 43.9323 0.824998H39.2073V14.775H45.8223C47.3073 14.775 48.6123 12.885 49.1073 10.815H49.3773V19.365H49.1073C48.6123 17.43 47.3523 15.495 45.8223 15.495H39.2073V32.235H44.9673C50.9973 32.235 53.5623 29.31 54.7323 26.61ZM70.5684 0.239998L82.9884 28.995C83.5284 30.3 83.9334 31.695 85.6434 32.73V33H75.1584V32.73C76.7334 31.965 77.8134 30.885 76.8684 28.68L74.4834 22.875H61.6584L59.5434 28.095C58.6434 30.3 59.8584 31.83 61.3884 32.64V33H55.3134V32.64C57.2034 31.74 57.6534 30.435 58.1484 29.175L69.9834 0.239998H70.5684ZM68.0034 7.215L61.9734 22.11H74.1684L68.0034 7.215ZM100.768 33.315C92.3527 33.315 87.5377 28.725 87.5377 20.445V3.885C87.5377 2.445 86.8627 0.959999 85.7377 0.509997V0.239998H94.9627V0.509997C93.8377 0.959999 93.1177 2.445 93.1177 3.885V20.625C93.1177 28.32 96.1327 32.1 101.713 32.1C107.383 32.1 111.028 28.05 111.028 21.03V4.83C111.028 2.985 110.218 1.455 109.003 0.509997V0.239998H113.773V0.509997C112.603 1.41 111.748 2.985 111.748 4.83V21.075C111.748 28.5 107.698 33.315 100.768 33.315ZM117.242 0.239998H142.892L144.062 7.035H143.837C142.577 4.29 139.877 0.959999 136.097 0.959999H132.902V29.355C132.902 30.795 133.577 32.28 134.702 32.73V33H125.522V32.73C126.647 32.28 127.277 30.795 127.322 29.355V0.959999H124.037C120.302 0.959999 117.557 4.29 116.297 7.035H116.072L117.242 0.239998ZM166.719 0.509997V0.239998H173.469V0.509997C171.579 1.185 170.139 3.165 169.419 4.605L161.634 20.355V29.355C161.634 30.795 162.309 32.28 163.434 32.73V33H153.804V32.73C154.929 32.28 155.559 30.795 155.559 29.355V20.445L147.909 4.695C147.279 3.3 146.424 1.41 144.579 0.509997V0.239998H154.344V0.509997C152.724 1.14 152.724 2.175 153.849 4.38L161.274 19.32L168.564 4.56C169.284 3.075 169.104 1.455 166.719 0.509997Z" fill="#4B4540"/>
<path d="M121.933 60.4063C117.424 60.4063 115.156 57.7333 115.156 54.3583H115.372C115.372 57.0583 117.694 59.0833 121.312 59.0833C124.066 59.0833 125.497 57.8683 125.497 55.8433C125.497 50.8483 115.75 51.9553 115.75 45.6373C115.75 42.2893 118.369 40.3993 121.852 40.3993C125.875 40.3993 128.008 42.8833 128.008 46.2043H127.792C127.792 43.8013 125.848 41.7223 122.689 41.7223C120.097 41.7223 118.774 42.8833 118.774 44.6113C118.774 49.1203 128.548 48.4183 128.548 54.8713C128.548 58.3273 125.902 60.4063 121.933 60.4063ZM139.704 45.6913C142.728 45.6913 145.158 48.2293 145.158 53.0623C145.158 57.6253 142.215 60.4063 138.921 60.4063C137.571 60.4063 136.005 59.8933 134.952 58.8403V63.3763C134.952 64.2403 135.249 65.1313 135.924 65.4013V65.5633H130.767V65.4013C131.442 65.1313 131.712 64.2673 131.712 63.3763V49.9033C131.712 48.7153 131.253 48.1213 130.497 47.5003V47.3653C131.55 46.9873 133.521 46.3393 134.736 45.9343H134.871V48.5803H134.898C135.924 46.8793 137.544 45.6913 139.704 45.6913ZM137.652 59.5153C140.028 59.5153 141.702 57.7063 141.702 53.3593C141.702 49.2823 140.325 46.9873 138.273 46.9873C136.977 46.9873 135.708 47.7163 134.952 48.8233V58.5163C135.681 59.2183 136.599 59.5153 137.652 59.5153ZM154.319 60.4063C150.08 60.4063 147.218 57.3823 147.218 53.0893C147.218 48.9583 150.215 45.6913 154.319 45.6913C158.531 45.6913 161.42 48.7423 161.42 53.0083C161.42 57.1933 158.423 60.4063 154.319 60.4063ZM154.319 60.0823C156.506 60.0823 157.964 57.7603 157.937 53.0353C157.937 48.3643 156.479 46.0153 154.319 46.0153C152.132 46.0153 150.674 48.3643 150.674 53.0353C150.647 57.7603 152.132 60.0823 154.319 60.0823ZM171.459 55.8703H171.621C171.621 58.1113 170.919 60.4063 168.165 60.4063C165.708 60.4063 164.493 58.5973 164.493 55.9783V46.5283H162.63V46.4203C164.412 45.3943 166.059 44.3413 167.652 43.2073H167.733V46.1773H171.297V46.5013H167.733V56.1403C167.733 58.3273 168.57 59.0563 169.515 59.0563C170.919 59.0563 171.459 57.6253 171.459 55.8703Z" fill="#4B4540"/>
<rect x="3.26099" y="55.0435" width="104.348" height="5.43478" fill="#4B4540"/>
</svg>
